<?xml version="1.0" encoding="UTF-8"?>
<svg width="998px" height="320px" viewBox="0 0 998 320" version="1.1" xmlns="http://www.w3.org/2000/svg" xmlns:xlink="http://www.w3.org/1999/xlink">
    <!-- Generator: Sketch 50.2 (55047) - http://www.bohemiancoding.com/sketch -->
    <title>Artboard 2</title>
    <desc>Created with Sketch.</desc>
    <defs></defs>
    <g id="Artboard-2" stroke="none" stroke-width="1" fill="none" fill-rule="evenodd">
        <rect id="Rectangle-4" fill-opacity="0.15" fill="#000000" x="80" y="76" width="308" height="167"></rect>
        <g id="Group-3" transform="translate(54.000000, 52.000000)" fill="#FFFFFF">
            <path d="M177.970334,61.4239195 C172.573147,62.2052662 164.246059,69.2401872 160.277454,75.012071 C166.370019,76.1070766 177.100383,75.6953993 181.851653,66.2380235 C181.851653,66.2380235 184.156004,60.3765229 177.970334,61.4239195" id="Fill-4"></path>
            <path d="M319.513363,104.042993 C316.427218,107.460535 310.863545,113.864167 306.382176,122.564137 C311.081728,122.036178 315.617643,119.478699 316.98703,118.178671 C319.217667,116.194567 324.411003,110.818468 323.57272,103.671151 C323.57272,103.671151 323.101903,99.9953076 319.513363,104.042993" id="Fill-6"></path>
            <path d="M153.866016,65.3447886 C152.193808,68.0136789 152.120859,69.6205445 152.903655,70.7240545 C154.803127,67.825612 158.290636,63.240099 163.419491,59.7276734 C159.460621,60.0899788 156.12462,61.7991748 153.866016,65.3447886" id="Fill-8"></path>
            <path d="M326.375542,119.551794 C323.106215,125.312762 313.868227,137.369917 301.594225,134.523252 C297.542268,144.442469 294.137089,154.476375 292.19085,169.486063 C292.19085,169.486063 291.762619,172.403307 289.358616,171.391682 C286.978239,170.547681 283.056228,166.551175 282.258832,161.028409 C281.408275,153.77059 284.609675,141.498758 291.157188,127.427175 C289.246389,124.295256 287.946928,119.822345 289.06033,113.449697 C289.06033,113.449697 290.70533,101.618981 302.483174,90.9557498 C302.483174,90.9557498 303.894862,89.7235673 304.712932,90.1058674 C305.610741,90.4881674 305.194323,94.3346941 304.479619,96.2079644 C303.738336,98.0665309 298.493238,107.227028 298.493238,107.227028 C298.493238,107.227028 295.223911,113.414408 296.142394,118.293145 C302.320742,108.712117 316.36083,89.3912603 325.064267,95.4845351 C327.985102,97.5930669 329.331816,102.183608 329.334769,107.132924 C329.334769,111.476441 328.298154,116.093449 326.375542,119.551794 M262.193968,137.214057 C262.193968,137.214057 257.988439,137.487548 254.429687,131.755988 C251.119014,126.29792 255.684849,115.964055 255.684849,115.964055 C255.684849,115.964055 253.590944,111.135311 255.108951,109.503184 C255.108951,109.503184 256.009714,108.673887 258.644077,108.488619 L261.86615,101.760138 C261.86615,101.760138 258.195172,102.015985 256.009714,99.2928318 C253.977829,96.7049545 253.80949,95.5198243 255.368843,94.8052173 C257.034517,93.9729795 272.320906,91.1586629 282.837683,91.514496 C282.837683,91.514496 286.493894,91.1557221 289.662808,97.5518962 C289.662808,97.5518962 291.198535,100.139773 288.587799,100.763217 C283.50218,101.945406 270.129542,102.601198 270.129542,102.601198 L268.443196,107.932813 C268.443196,107.932813 275.126561,107.356422 279.987728,107.868116 C279.987728,107.868116 281.564801,107.682848 281.75086,109.673749 C281.81288,111.529374 281.594334,113.517335 281.594334,113.517335 C281.594334,113.517335 281.490968,114.72305 279.798715,115.02889 C277.967656,115.337671 265.398322,115.825839 265.398322,115.825839 L263.36053,122.774878 C263.36053,122.774878 262.60448,124.380538 264.299686,123.924719 C265.87676,123.498307 279.048572,121.004534 280.764451,121.360367 C282.601417,121.822068 284.636255,124.295256 284.048544,126.550826 C283.348607,129.344557 270.200422,137.802211 262.193968,137.214057 M249.028063,126.624345 C247.681349,129.820962 244.11669,133.238136 239.695569,131.1149 C235.327607,128.988724 228.372536,114.626005 228.372536,114.626005 C228.372536,114.626005 225.732267,109.267923 225.224295,109.406139 C225.224295,109.406139 224.654304,108.362165 224.302859,114.214297 C223.939601,120.042903 224.373739,131.406037 222.070149,133.194025 C219.887644,134.987894 217.244422,134.276228 215.871128,132.179459 C214.627779,130.112098 214.107995,125.209835 214.790212,116.59338 C215.587609,107.962221 217.575194,98.7781971 220.11505,95.919769 C222.648999,93.0789855 224.686791,95.140465 225.478281,95.8903613 C225.478281,95.8903613 228.868694,98.9899325 234.462284,108.097496 L235.451646,109.782557 C235.451646,109.782557 240.534312,118.387249 241.06591,118.369605 C241.06591,118.369605 241.479375,118.763668 241.851493,118.478413 C242.383091,118.325493 242.167498,115.567051 242.167498,115.567051 C242.167498,115.567051 241.113163,106.188937 236.479402,90.314662 C236.479402,90.314662 235.776512,88.3384648 236.249043,86.4828391 C236.721574,84.6066281 238.582167,85.4859182 238.582167,85.4859182 C238.582167,85.4859182 245.77055,89.1324726 249.258422,100.939663 C252.725621,112.746853 250.395451,123.401262 249.028063,126.624345 M213.688623,96.2373721 C213.077286,97.4460285 212.743561,99.1899049 209.716407,99.6486649 C209.716407,99.6486649 180.652774,101.660151 179.27948,103.706927 C179.27948,103.706927 178.257631,104.930287 179.843564,105.274357 C181.423591,105.612546 187.99473,106.494777 191.163644,106.662401 C194.562916,106.700631 205.974549,106.788854 210.064898,111.97049 C210.064898,111.97049 212.486622,114.411329 212.389162,119.975265 C212.273983,125.665654 211.281667,127.671259 209.108022,129.726857 C206.798525,131.644239 187.111687,140.534186 174.412407,126.865488 C174.412407,126.865488 168.570738,120.275223 176.429525,115.29356 C176.429525,115.29356 182.123528,111.829333 196.535735,115.90818 C196.535735,115.90818 200.894837,117.5109 200.702871,119.122442 C200.457745,120.83691 197.120492,122.654306 192.250466,122.533734 C187.525152,122.389637 184.049093,120.104659 184.719497,120.484018 C185.369228,120.733983 179.654552,117.716754 177.876652,119.754707 C176.11352,121.651504 176.524031,122.830752 178.245817,123.980593 C182.663986,126.509655 199.695788,125.61272 204.78436,119.91939 C204.78436,119.91939 206.798525,117.619708 203.730025,115.71703 C200.661524,113.934924 191.857674,112.864484 188.434775,112.705682 C185.141822,112.520414 172.956419,112.746853 171.175567,109.482599 C171.175567,109.482599 169.418341,107.285844 171.337999,101.010241 C173.387604,94.4699696 187.598985,91.9467892 193.762566,91.3674576 C193.762566,91.3674576 210.658516,90.7704813 213.777223,94.2494118 C213.777223,94.2494118 214.193641,95.0463604 213.688623,96.2373721 M156.562534,83.3038671 C155.062247,85.9887898 154.155578,86.8063238 153.000829,86.9857107 C151.290856,87.1592162 149.784662,84.4184188 149.48933,83.5126618 C149.196951,82.8539294 148.387741,81.683503 149.368244,79.0074026 C145.989645,75.9284168 145.747472,71.8260431 146.30565,69.0352527 C147.144393,65.8356953 152.862023,53.6373827 170.262991,52.216991 C170.262991,52.216991 178.753789,51.5788439 180.212729,56.1723262 L180.460808,56.1723262 C180.460808,56.1723262 188.7242,56.1958523 188.547001,63.6154142 C188.484981,71.0290945 179.415333,80.3042821 170.076931,83.4685502 C164.108269,85.4770959 160.006107,84.8007189 156.562534,83.3038671 M165.697156,134.649706 C163.632785,136.167143 159.294356,135.496647 158.068728,133.805705 C156.840146,132.25886 156.411915,126.18323 156.67476,116.643373 C156.922839,106.985885 157.120712,95.0463604 159.176223,93.1554455 C161.361681,91.2351229 162.717255,92.9084209 163.547138,94.2170634 C164.480388,95.5051205 165.57607,96.9343345 165.800522,99.9662681 C166.010208,102.995261 166.707192,118.875417 166.707192,118.875417 C166.707192,118.875417 167.616815,133.144031 165.697156,134.649706 M152.522391,109.22087 C151.860847,117.831444 148.582661,132.347083 125.304584,139.499035 C109.950268,144.163095 95.4583215,141.92517 87.5257011,139.893098 C87.3603152,143.066188 87.0088699,144.41012 86.503852,144.957103 C85.8511681,145.627599 80.827569,148.562487 78.0721204,144.41012 C76.8346789,142.448627 76.2174348,138.872651 75.860083,135.726027 C58.0663236,127.480109 49.8708577,115.558229 49.5725722,115.02889 C49.1768272,114.649531 45.1337307,110.376593 49.1768272,105.118497 C52.9895647,100.380917 65.4407663,95.6609813 76.6722462,93.7377179 C77.0591313,84.071408 78.1873,76.7547731 79.5281077,73.4140587 C81.1376677,69.529302 83.1872725,73.040581 84.9681251,75.6461029 C86.4595522,77.5928924 87.3396419,86.0299606 87.4105216,92.7878493 C94.7318045,92.44672 99.0938597,92.9819401 107.271606,94.4758511 C117.930141,96.4314629 125.050598,101.918939 124.430401,108.156312 C123.963776,114.26429 118.384953,116.799234 116.273328,116.97568 C114.037664,117.169771 110.594092,115.567051 110.594092,115.567051 C108.213715,114.431914 110.408033,113.440875 113.263894,112.167521 C116.358975,110.629499 115.667897,109.06795 115.667897,109.06795 C114.513149,105.66548 100.673886,103.262871 86.9055037,103.254049 C86.8493906,110.923576 87.2185557,123.633582 87.4105216,131.0355 C97.0472082,132.891125 104.247405,132.544114 104.247405,132.544114 C104.247405,132.544114 139.383066,131.561897 140.449214,108.906208 C141.536037,86.2211106 105.387387,64.4741189 78.6923179,57.5603694 C52.0031555,50.4995815 36.9175915,55.4371337 35.6181302,56.1164515 C34.2034894,56.8310586 35.523624,57.0574978 35.523624,57.0574978 C35.523624,57.0574978 36.958938,57.2692332 39.4840275,58.1367603 C42.1449698,58.9895835 40.0687851,60.3629229 40.0687851,60.3629229 C35.523624,61.8186039 30.390752,60.898143 29.416156,58.8131373 C28.4208868,56.7281316 30.06884,54.8372167 31.9766854,52.1199456 C33.8727175,49.2850436 35.9666221,49.3644444 35.9666221,49.3644444 C68.9640783,37.839568 109.164685,58.6749211 109.164685,58.6749211 C146.813621,77.8840286 153.210515,100.463258 152.522391,109.22087 M362.098913,0.0330331875 L13.4445957,0.0330331875 C6.03766652,0.0330331875 0.0335648148,6.01161792 0.0335648148,13.3841275 L0.0335648148,200.325915 C0.0335648148,207.698424 6.03766652,213.677009 13.4445957,213.677009 L362.098913,213.677009 C369.502889,213.677009 375.506991,207.698424 375.506991,200.325915 L375.506991,13.3841275 C375.506991,6.01161792 369.502889,0.0330331875 362.098913,0.0330331875" id="Fill-10"></path>
            <path d="M51.1561421,110.871782 C58.0297903,118.232057 66.5148114,122.853889 74.5601041,125.70596 C75.5060986,113.007995 75.3643441,108.542402 75.4424537,102.142286 C62.863909,103.003021 55.6054986,104.994357 52.2988572,106.48857 C48.6248113,108.264012 51.1561421,110.871782 51.1561421,110.871782" id="Fill-12"></path>
            <path d="M399.072269,76.2229766 L408.33521,73.6947841 C410.876997,78.3883267 416.237428,80.9135931 423.500517,80.9135931 C431.585342,80.9135931 435.944374,78.3883267 435.944374,73.6947841 C435.944374,61.8760691 401.343088,72.612109 401.343088,50.9615341 C401.343088,42.1187124 410.788638,36.1639997 422.77303,36.1639997 C432.21858,36.1639997 441.755434,40.8546162 444.842099,47.9827146 L435.761765,50.4172704 C433.58225,46.6308339 428.495731,44.4654838 422.955638,44.4654838 C415.692549,44.4654838 411.333517,46.9000396 411.333517,51.1429553 C411.333517,62.8709597 446.202824,52.0442092 446.202824,73.4255784 C446.202824,83.3510751 437.396402,89.5749936 423.500517,89.5749936 C411.787092,89.5749936 402.253183,84.3430395 399.072269,76.2229766" id="Fill-14"></path>
            <path d="M461.707562,68.1372964 L461.707562,44.7903595 L454.057917,44.7903595 L454.057917,36.8882287 L461.707562,36.8882287 L461.707562,27.3479231 L472.12232,25.1676186 L472.12232,36.8882287 L487.699616,36.8882287 L487.699616,44.7903595 L472.12232,44.7903595 L472.12232,66.955807 C472.12232,77.6746556 474.9801,81.3988515 483.00042,81.3988515 C484.010807,81.3988515 485.21251,81.2191237 487.239263,80.9451124 L488.620324,88.8501896 C486.593572,89.3039287 483.643122,89.5749936 481.434022,89.5749936 C467.883477,89.5749936 461.707562,84.0358415 461.707562,68.1372964" id="Fill-16"></path>
            <path d="M499.617454,36.8001111 L509.735067,36.8001111 L509.735067,45.3941094 C511.72167,39.9328557 517.142344,34.9187223 527.895787,36.4400922 L526.808722,46.1083403 C515.246573,43.9627441 509.735067,50.1382287 509.735067,62.6692073 L509.735067,88.004082 L499.617454,88.004082 L499.617454,36.8001111 Z" id="Fill-18"></path>
            <path d="M574.764022,57.5633921 C574.033075,49.3804138 568.3749,44.166171 559.16261,44.166171 C550.400133,44.166171 544.289186,48.6630179 543.102508,57.5633921 L574.764022,57.5633921 Z M532.608843,62.8680385 C532.608843,47.044503 543.374763,36.1639997 558.979134,36.1639997 C575.583747,36.1639997 585.621681,48.2139165 584.343264,65.4780761 L542.827293,65.4780761 C543.194246,75.4574603 549.48867,81.1237208 559.618342,81.1237208 C566.915967,81.1237208 571.65972,78.6944902 574.216552,73.7485418 L583.615277,75.1862497 C579.418995,84.7194487 571.203988,89.5749936 559.434866,89.5749936 C543.194246,89.5749936 532.608843,78.9627846 532.608843,62.8680385 Z" id="Fill-20"></path>
            <path d="M634.357083,62.7793932 C634.357083,51.577501 627.800502,44.6773214 618.274519,44.6773214 C608.838871,44.6773214 602.369712,51.4873976 602.369712,62.7793932 C602.369712,74.1614922 608.838871,80.9744749 618.452276,80.9744749 C627.887924,80.9744749 634.357083,74.0713888 634.357083,62.7793932 M592.307546,62.7793932 C592.307546,45.1249321 603.089479,36.1639997 615.847128,36.1639997 C623.933577,36.1639997 631.122503,40.1052985 634.088992,47.1856849 L634.088992,37.1493244 L644.151157,37.1493244 L644.151157,88.3222651 L634.088992,88.3222651 L634.088992,78.6434117 C631.209924,85.5435913 623.933577,89.5749936 615.937463,89.5749936 C603.179814,89.5749936 592.307546,80.5239577 592.307546,62.7793932" id="Fill-22"></path>
            <path d="M661.432361,37.1445086 L671.701813,37.1445086 L671.701813,46.7477281 C673.533308,40.166783 679.491612,36.2562828 687.650088,36.2562828 C696.450777,36.2562828 700.761925,39.457356 703.604309,48.3482647 C706.078016,40.6108959 713.044237,36.1639997 722.852842,36.1639997 C736.053875,36.1639997 741.554306,43.8119691 741.554306,62.1301824 L741.554306,88.004082 L731.287827,88.004082 L731.287827,62.9290088 C731.287827,49.9488013 727.80323,44.7895941 719.09471,44.7895941 C710.109683,44.7895941 706.351551,50.1247161 706.351551,62.753094 L706.351551,88.004082 L696.085072,88.004082 L696.085072,63.0184081 C696.085072,49.6806032 692.96618,44.8789935 684.441999,44.8789935 C675.549141,44.8789935 671.701813,50.6582283 671.701813,63.730719 L671.701813,88.004082 L661.432361,88.004082 L661.432361,37.1445086 Z" id="Fill-24"></path>
            <path d="M752.699688,89.5749936 L763.186936,89.5749936 L763.186936,37.4006118 L752.699688,37.4006118 L752.699688,89.5749936 Z M750.980417,24.3570163 C750.980417,20.8897689 754.400571,18.8839722 757.989282,18.8839722 C761.391048,18.8839722 763.548565,20.8897689 763.548565,24.3570163 C763.548565,27.7325533 761.391048,29.8300605 757.989282,29.8300605 C754.400571,29.8300605 750.980417,27.7325533 750.980417,24.3570163 Z" id="Fill-26"></path>
            <path d="M779.25875,37.0538094 L789.220134,37.0538094 L789.220134,46.3159195 C791.530229,39.9919148 797.309793,36.1639997 805.846474,36.1639997 C819.89739,36.1639997 826.389306,44.2676238 826.389306,60.3910912 L826.389306,88.004082 L816.427921,88.004082 L816.427921,61.1913421 C816.427921,50.0571648 812.162465,44.8020874 802.734623,44.8020874 C793.130857,44.8020874 789.220134,51.1260921 789.220134,62.3527171 L789.220134,88.004082 L779.25875,88.004082 L779.25875,37.0538094 Z" id="Fill-28"></path>
            <path d="M880.916655,61.6096291 C880.916655,50.5910352 874.537831,43.8700416 864.924427,43.8700416 C855.398444,43.8700416 849.019619,50.5910352 849.019619,61.6096291 C849.019619,72.8083794 855.398444,79.4363891 865.011848,79.4363891 C874.537831,79.4363891 880.916655,72.7183012 880.916655,61.6096291 M840.213403,92.5180636 L849.739386,90.1876543 C852.257113,95.4761144 857.825836,98.8787446 864.834092,98.8787446 C874.986592,98.8787446 880.735985,93.8634246 880.735985,81.0490789 L880.735985,76.5713222 C877.862746,84.187286 870.583484,87.142431 862.58737,87.142431 C849.739386,87.142431 838.957454,78.6314971 838.957454,61.6096291 C838.957454,44.6749336 849.739386,36.1639997 862.497035,36.1639997 C870.583484,36.1639997 877.862746,39.1220505 880.735985,46.8251867 L880.735985,37.0618756 L890.801065,37.0618756 L890.801065,79.4363891 C890.801065,98.6114158 881.726757,106.855021 864.743757,106.855021 C852.702961,106.855021 843.718988,101.656639 840.213403,92.5180636" id="Fill-29"></path>
            <path d="M399.072269,168.90676 L408.33521,166.378568 C410.876997,171.07211 416.237428,173.597377 423.500517,173.597377 C431.585342,173.597377 435.944374,171.07211 435.944374,166.378568 C435.944374,154.559853 401.343088,165.295893 401.343088,143.645318 C401.343088,134.802496 410.788638,128.847783 422.77303,128.847783 C432.21858,128.847783 441.755434,133.5384 444.842099,140.666498 L435.761765,143.101054 C433.58225,139.314617 428.495731,137.149267 422.955638,137.149267 C415.692549,137.149267 411.333517,139.583823 411.333517,143.826739 C411.333517,155.554743 446.202824,144.727993 446.202824,166.109362 C446.202824,176.034859 437.396402,182.258777 423.500517,182.258777 C411.787092,182.258777 402.253183,177.026823 399.072269,168.90676" id="Fill-30"></path>
            <path d="M499.355686,148.676264 C498.624781,140.493286 492.966929,135.279043 483.752206,135.279043 C474.993188,135.279043 468.87963,139.77589 467.69302,148.676264 L499.355686,148.676264 Z M457.199954,153.98091 C457.199954,138.157375 467.968219,127.276872 483.571699,127.276872 C500.175364,127.276872 510.212725,139.326788 508.934382,156.590948 L467.42078,156.590948 C467.787712,166.570332 474.078818,172.236593 484.207911,172.236593 C491.508079,172.236593 496.251561,169.807362 498.805288,164.861414 L508.206436,166.299122 C504.007434,175.832321 495.795855,180.687866 484.027405,180.687866 C467.787712,180.687866 457.199954,170.075657 457.199954,153.98091 Z" id="Fill-31"></path>
            <path d="M520.040694,129.465399 L529.944083,129.465399 L529.944083,138.062502 C531.822658,132.788063 536.936398,127.952193 546.748009,128.989074 L545.84744,138.637578 C535.080767,136.93268 529.944083,143.110395 529.944083,155.34384 L529.944083,180.687866 L520.040694,180.687866 L520.040694,129.465399 Z" id="Fill-32"></path>
            <polygon id="Fill-33" points="551.461065 128.847783 562.387328 128.847783 578.863853 169.561042 595.340379 128.847783 606.446713 128.847783 583.876806 180.687866 573.847996 180.687866"></polygon>
            <path d="M618.390821,180.687866 L628.878069,180.687866 L628.878069,128.513484 L618.390821,128.513484 L618.390821,180.687866 Z M617.443843,115.469888 C617.443843,112.002641 620.091704,109.996844 623.680415,109.996844 C627.082181,109.996844 630.011991,112.002641 630.011991,115.469888 C630.011991,118.845425 627.082181,120.942932 623.680415,120.942932 C620.091704,120.942932 617.443843,118.845425 617.443843,115.469888 Z" id="Fill-34"></path>
            <path d="M639.438102,153.982369 C639.438102,138.426278 650.242195,127.276872 665.352483,127.276872 C678.538347,127.276872 686.414228,133.211751 689.710694,144.900691 L680.920118,146.609703 C678.35422,139.327446 673.501585,135.819014 665.80983,135.819014 C656.285716,135.819014 649.695754,143.19168 649.695754,153.982369 C649.695754,164.682649 656.285716,172.058231 665.80983,172.058231 C672.952174,172.058231 678.446284,168.100673 680.735991,161.355034 L689.526568,163.066962 C686.687449,174.12596 677.896873,180.687866 665.352483,180.687866 C650.242195,180.687866 639.438102,169.538459 639.438102,153.982369" id="Fill-35"></path>
            <path d="M739.718949,148.676264 C738.988038,140.493286 733.330134,135.279043 724.118284,135.279043 C715.356226,135.279043 709.245572,139.77589 708.05895,148.676264 L739.718949,148.676264 Z M697.565787,153.98091 C697.565787,138.157375 708.331193,127.276872 723.934817,127.276872 C740.538635,127.276872 750.576088,139.326788 749.300693,156.590948 L707.783749,156.590948 C708.150684,166.570332 714.444807,172.236593 724.573994,172.236593 C731.87127,172.236593 736.614796,169.807362 739.171505,164.861414 L748.569781,166.299122 C744.3737,175.832321 736.159086,180.687866 724.390526,180.687866 C708.150684,180.687866 697.565787,170.075657 697.565787,153.98091 Z" id="Fill-36"></path>
            <path d="M758.835509,168.90676 L768.100818,166.378568 C770.642445,171.07211 775.999596,173.597377 783.262231,173.597377 C791.346551,173.597377 795.70531,171.07211 795.70531,166.378568 C795.70531,154.559853 761.106187,165.295893 761.106187,143.645318 C761.106187,134.802496 770.551147,128.847783 782.537735,128.847783 C791.979749,128.847783 801.516007,133.5384 804.60248,140.666498 L795.522714,143.101054 C793.343334,139.314617 788.257133,137.149267 782.717386,137.149267 C775.454751,137.149267 771.095992,139.583823 771.095992,143.826739 C771.095992,155.554743 805.966065,144.727993 805.966065,166.109362 C805.966065,176.034859 797.157248,182.258777 783.262231,182.258777 C771.549538,182.258777 762.016225,177.026823 758.835509,168.90676" id="Fill-37"></path>
        </g>
    </g>
</svg>