<?xml version="1.0" encoding="UTF-8"?>
<svg width="400px" height="400px" viewBox="0 0 400 400" version="1.1" xmlns="http://www.w3.org/2000/svg" xmlns:xlink="http://www.w3.org/1999/xlink">
    <!-- Generator: Sketch 50.2 (55047) - http://www.bohemiancoding.com/sketch -->
    <title>Artboard 3</title>
    <desc>Created with Sketch.</desc>
    <defs></defs>
    <g id="Artboard-3" stroke="none" stroke-width="1" fill="none" fill-rule="evenodd">
        <g id="Group-8" transform="translate(60.000000, 70.000000)" fill="#FFFFFF">
            <path d="M132.5311,45.6373982 C128.511918,46.2179315 122.310895,51.444812 119.355551,55.7332677 C123.892568,56.5468466 131.883264,56.2409742 135.421444,49.2142324 C135.421444,49.2142324 137.13745,44.8591922 132.5311,45.6373982" id="Fill-4"></path>
            <path d="M237.935483,77.3029718 C235.63729,79.842173 231.494129,84.6000118 228.15694,91.0640082 C231.656606,90.6717396 235.034415,88.7715566 236.054172,87.8056479 C237.715284,86.3314771 241.582662,82.3370858 240.958408,77.0266966 C240.958408,77.0266966 240.6078,74.295579 237.935483,77.3029718" id="Fill-6"></path>
            <path d="M114.581076,48.5505673 C113.335814,50.5335278 113.281491,51.7274139 113.864424,52.5473116 C115.278924,50.3937959 117.876005,46.9868025 121.695365,44.3771032 C118.747271,44.6462926 116.263015,45.9162093 114.581076,48.5505673" id="Fill-8"></path>
            <path d="M243.045616,88.8258657 C240.611011,93.1062109 233.731658,102.064565 224.591444,99.9495193 C221.574029,107.319404 219.038258,114.774503 217.588931,125.926561 C217.588931,125.926561 217.270035,128.094046 215.47982,127.342418 C213.707199,126.715333 210.786553,123.745966 210.192747,119.642603 C209.559354,114.250111 211.943375,105.132255 216.819183,94.6772003 C215.396247,92.3502132 214.428563,89.0268824 215.257693,84.2920646 C215.257693,84.2920646 216.482692,75.5019529 225.253428,67.579272 C225.253428,67.579272 226.304684,66.663772 226.913885,66.9478173 C227.582467,67.2318627 227.272368,70.0897961 226.740142,71.4816184 C226.188122,72.8625159 222.282198,79.66868 222.282198,79.66868 C222.282198,79.66868 219.847593,84.265845 220.53157,87.8907009 C225.132467,80.772087 235.587852,66.416871 242.069135,70.9441172 C244.244225,72.5107367 245.247097,75.921466 245.249296,79.5987611 C245.249296,82.8259535 244.477348,86.2563476 243.045616,88.8258657 M195.250828,101.948762 C195.250828,101.948762 192.11905,102.151963 189.468916,97.8934679 C187.003521,93.838174 190.403611,86.1602091 190.403611,86.1602091 C190.403611,86.1602091 188.84432,82.5724976 189.974751,81.3598424 C189.974751,81.3598424 190.645532,80.7436824 192.607291,80.6060297 L195.006707,75.6068312 C195.006707,75.6068312 192.273,75.7969231 190.645532,73.7736461 C189.132426,71.8508774 189.007067,70.9703368 190.168288,70.4393904 C191.408683,69.8210455 202.792164,67.7300346 210.623806,67.9944153 C210.623806,67.9944153 213.346517,67.7278496 215.706346,72.4801471 C215.706346,72.4801471 216.849973,74.4029158 214.905808,74.8661283 C211.118645,75.7444839 201.160297,76.231731 201.160297,76.231731 L199.904507,80.1930714 C199.904507,80.1930714 204.881482,79.7648184 208.501499,80.1450022 C208.501499,80.1450022 209.675916,80.0073494 209.814471,81.4865703 C209.860655,82.8652828 209.697909,84.3423188 209.697909,84.3423188 C209.697909,84.3423188 209.620934,85.2381542 208.360745,85.4653905 C206.997191,85.6948117 197.637048,86.0575158 197.637048,86.0575158 L196.119544,91.2205866 C196.119544,91.2205866 195.556528,92.4135772 196.818915,92.0749077 C197.993332,91.7580879 207.802128,89.9052381 209.07991,90.1696188 C210.447864,90.5126582 211.963169,92.3502132 211.525512,94.0260809 C211.004282,96.1017971 201.21308,102.385755 195.250828,101.948762 M185.44643,94.080705 C184.443558,96.4557613 181.789025,98.9946899 178.4967,97.4171456 C175.243962,95.8374164 170.064654,85.1660503 170.064654,85.1660503 C170.064654,85.1660503 168.098496,81.1850452 167.72022,81.2877386 C167.72022,81.2877386 167.295759,80.5120762 167.034044,84.8601553 C166.763532,89.1907547 167.086827,97.6334571 165.371387,98.9619154 C163.746118,100.294744 161.777761,99.7659823 160.755095,98.2081027 C159.829197,96.6720728 159.442124,93.0297371 159.950158,86.6277915 C160.543964,80.2149211 162.024081,73.3912773 163.915463,71.2674919 C165.802446,69.1568163 167.319951,70.6884764 167.909358,71.2456423 C167.909358,71.2456423 170.434134,73.5485947 174.599573,80.3154294 L175.336332,81.567414 C175.336332,81.567414 179.121296,87.9606198 179.517167,87.94751 C179.517167,87.94751 179.825066,88.2402952 180.102176,88.0283537 C180.498046,87.9147355 180.337499,85.8652389 180.337499,85.8652389 C180.337499,85.8652389 179.552355,78.8973875 176.101682,67.1029498 C176.101682,67.1029498 175.578253,65.6346537 175.930138,64.2559412 C176.282023,62.8619339 177.667571,63.5152383 177.667571,63.5152383 C177.667571,63.5152383 183.020622,66.2245941 185.617974,74.9972261 C188.199931,83.7698581 186.464697,91.685984 185.44643,94.080705 M159.129826,71.5034681 C158.674575,72.4014884 158.426056,73.6971723 156.171792,74.0380268 C156.171792,74.0380268 134.528662,75.5325424 133.505996,77.0532776 C133.505996,77.0532776 132.745044,77.9622228 133.926058,78.2178636 C135.102674,78.4691345 139.996076,79.1246238 142.355905,79.2491668 C144.887278,79.2775713 153.385302,79.3431203 156.431307,83.1930275 C156.431307,83.1930275 158.234718,85.0065479 158.162142,89.1405005 C158.07637,93.3684066 157.337411,94.8585523 155.71874,96.3858424 C153.998902,97.8104392 139.33849,104.415587 129.881579,94.2598721 C129.881579,94.2598721 125.5314,89.3633669 131.383689,85.6620373 C131.383689,85.6620373 135.623904,83.0881492 146.356398,86.1186948 C146.356398,86.1186948 149.602538,87.3095004 149.459585,88.5068609 C149.277044,89.7806951 146.791856,91.1310031 143.165241,91.0414196 C139.64639,90.9343563 137.057835,89.236639 137.557072,89.5184994 C138.040914,89.7042214 133.785304,87.4624479 132.461337,88.9766282 C131.148366,90.3859302 131.454066,91.262101 132.736247,92.116422 C136.026372,93.9954914 148.70963,93.3290773 152.498992,89.0989862 C152.498992,89.0989862 153.998902,87.3903441 151.713848,85.9766721 C149.428795,84.6525837 142.872736,83.8572567 140.323769,83.7392686 C137.87157,83.6016158 128.797334,83.7698581 127.471167,81.3445476 C127.471167,81.3445476 126.162594,79.7123792 127.592127,75.0496653 C129.118429,70.1903045 139.701372,68.315605 144.291273,67.8851671 C144.291273,67.8851671 156.873363,67.4416193 159.195804,70.0264322 C159.195804,70.0264322 159.505903,70.6185575 159.129826,71.5034681 M116.589121,61.8939947 C115.471886,63.8888672 114.796707,64.4962873 113.936788,64.6295701 C112.663403,64.758483 111.54177,62.7220962 111.321842,62.0491272 C111.104113,61.5596952 110.50151,60.6900794 111.231671,58.7017618 C108.715693,56.4141041 108.535352,53.3660788 108.951016,51.2925476 C109.575612,48.9153063 113.833421,39.8520741 126.791589,38.7967363 C126.791589,38.7967363 133.114523,38.322599 134.200969,41.7355134 L134.385708,41.7355134 C134.385708,41.7355134 140.539298,41.7529931 140.407341,47.2656582 C140.361156,52.7739534 133.607163,59.6653311 126.653034,62.0163527 C122.208286,63.5086834 119.153484,63.0061416 116.589121,61.8939947 M123.391499,100.043473 C121.854201,101.170914 118.623457,100.672743 117.710755,99.416388 C116.795854,98.2670968 116.476958,93.7529604 116.672694,86.6649359 C116.857434,79.4895129 117.004785,70.6185575 118.535485,69.2136254 C120.162954,67.7868437 121.172424,69.0300884 121.790422,70.0023975 C122.485395,70.9594119 123.301329,72.0213046 123.468474,74.2740029 C123.624623,76.5245162 124.143654,88.3233239 124.143654,88.3233239 C124.143654,88.3233239 124.821032,98.924771 123.391499,100.043473 M113.580504,81.1500858 C113.087865,87.5476615 110.646662,98.3326457 93.3119243,103.646479 C81.8778591,107.111833 71.0859841,105.449075 65.1787136,103.939264 C65.0555538,106.296841 64.7938393,107.29537 64.4177622,107.701773 C63.9317209,108.199945 60.1907429,110.380539 58.1388131,107.29537 C57.2173141,105.837998 56.7576642,103.181082 56.4915511,100.84317 C43.2408793,94.7165296 37.1378727,85.858684 36.9157453,85.4653905 C36.6210415,85.1835301 33.610225,82.0087768 36.6210415,78.1020605 C39.4603141,74.5820829 48.7324855,71.0752151 57.0963536,69.6462483 C57.3844595,62.4642704 58.2245851,57.0280791 59.2230589,54.5459595 C60.4216674,51.6596216 61.9479689,54.268469 63.2741357,56.2043475 C64.3847729,57.6507939 65.0401589,63.9194567 65.0929416,68.9405049 C70.5449608,68.687049 73.7932998,69.0847125 79.8831106,70.1946744 C87.8203181,71.6476757 93.1227861,75.7248193 92.660937,80.3591287 C92.3134505,84.8972997 88.1590074,86.780739 86.5865211,86.9118369 C84.9216649,87.0560445 82.3573025,85.8652389 82.3573025,85.8652389 C80.5846815,85.0218427 82.2187477,84.2855097 84.3454531,83.3394201 C86.6503002,82.1966837 86.1356683,81.0364677 86.1356683,81.0364677 C85.2757492,78.5084639 74.9699155,76.723348 64.7168645,76.7167931 C64.6750781,82.4151802 64.9499883,91.8585962 65.0929416,97.3581516 C72.2691976,98.7368641 77.6310462,98.4790383 77.6310462,98.4790383 C77.6310462,98.4790383 103.7959,97.7492602 104.589841,80.9162946 C105.399176,64.0614794 78.479969,47.9036678 58.6006622,42.7668165 C38.7257541,37.5207171 27.4918235,41.1892723 26.5241395,41.693999 C25.4706836,42.2249454 26.4537625,42.3931876 26.4537625,42.3931876 C26.4537625,42.3931876 27.5226134,42.5505051 29.4029992,43.1950696 C31.384552,43.8287092 29.838457,44.8490876 29.838457,44.8490876 C26.4537625,45.930645 22.631411,45.2467511 21.9056481,43.6976114 C21.1644902,42.1484716 22.3916893,40.7435395 23.8124253,38.7246324 C25.2243641,36.6183268 26.7836548,36.6773208 26.7836548,36.6773208 C51.3562285,28.1144454 81.2928502,43.594918 81.2928502,43.594918 C109.329292,57.8671054 114.092937,74.6432619 113.580504,81.1500858 M269.648127,0.0245433496 L10.011933,0.0245433496 C4.49613465,0.0245433496 0.0249950749,4.46657593 0.0249950749,9.94428163 L0.0249950749,148.840282 C0.0249950749,154.317988 4.49613465,158.760021 10.011933,158.760021 L269.648127,158.760021 C275.161726,158.760021 279.632865,154.317988 279.632865,148.840282 L279.632865,9.94428163 C279.632865,4.46657593 275.161726,0.0245433496 269.648127,0.0245433496" id="Fill-10"></path>
            <path d="M38.0949995,82.376698 C43.2136736,87.8453134 49.5323063,91.2792914 55.5234818,93.3983535 C56.2279458,83.963884 56.1223839,80.64599 56.1805506,75.8907641 C46.8135493,76.5302818 41.40835,78.0098261 38.9459575,79.120012 C36.2099658,80.4391493 38.0949995,82.376698 38.0949995,82.376698" id="Fill-12"></path>
        </g>
        <g id="Group-6" transform="translate(65.000000, 249.000000)" fill="#FFFFFF">
            <path d="M0,31.3799992 L5.06331069,29.9866156 C6.45372904,32.574328 9.38245383,33.9677116 13.352473,33.9677116 C17.7708835,33.9677116 20.1546507,32.574328 20.1546507,29.9866156 C20.1546507,23.4665555 1.24117966,29.3887742 1.24117966,17.4448094 C1.24117966,12.5666127 6.40375771,9.28220859 12.9560788,9.28220859 C18.1186569,9.28220859 23.3312063,11.8699209 25.0187514,15.8022688 L20.0547081,17.1455501 C18.864175,15.0554747 16.0833383,13.861146 13.0553462,13.861146 C9.08465174,13.861146 6.70155979,15.2044273 6.70155979,17.5443367 C6.70155979,24.0136176 25.762919,18.0412967 25.762919,29.836986 C25.762919,35.31167 20.9481143,38.7463808 13.352473,38.7463808 C6.95006584,38.7463808 1.73751646,35.8594092 0,31.3799992" id="Fill-2"></path>
            <path d="M33.5345673,26.81735 L33.5345673,14.0270638 L29.4146341,14.0270638 L29.4146341,9.69660639 L33.5345673,9.69660639 L33.5345673,4.47107945 L39.1441861,3.27607362 L39.1441861,9.69660639 L47.5326157,9.69660639 L47.5326157,14.0270638 L39.1441861,14.0270638 L39.1441861,26.1707605 C39.1441861,32.043554 40.6824925,34.0835272 45.0009604,34.0835272 C45.5472685,34.0835272 46.1935193,33.9839998 47.284785,33.8350472 L48.0296278,38.1648275 C46.9376869,38.4139846 45.3487338,38.5629371 44.1575255,38.5629371 C36.8603615,38.5629371 33.5345673,35.527013 33.5345673,26.81735" id="Fill-4"></path>
            <path d="M54.4715447,10.1816222 L60.0305169,10.1816222 L60.0305169,14.9589373 C61.1231332,11.9230132 64.101154,9.13556897 70.0085749,9.98189038 L69.4129708,15.3570469 C63.0591844,14.1627182 60.0305169,17.597429 60.0305169,24.5643469 L60.0305169,38.6498434 L54.4715447,38.6498434 L54.4715447,10.1816222 Z" id="Fill-6"></path>
            <path d="M94.8365758,21.1273231 C94.4395064,16.5984879 91.3615429,13.7115163 86.3482035,13.7115163 C81.5820196,13.7115163 78.2562254,16.2003783 77.6113252,21.1273231 L94.8365758,21.1273231 Z M71.902439,24.0637199 C71.902439,15.3046318 77.7598886,9.28220859 86.2489362,9.28220859 C95.2829413,9.28220859 100.743321,15.9518984 100.049125,25.5078827 L77.4620865,25.5078827 C77.6612965,31.0319918 81.0863581,34.1674434 86.5967096,34.1674434 C90.567404,34.1674434 93.1483554,32.823485 94.5387738,30.0868201 L99.6520558,30.8823622 C97.3689065,36.1579914 92.9005247,38.8452311 86.4967669,38.8452311 C77.6612965,38.8452311 71.902439,32.9724376 71.902439,24.0637199 Z" id="Fill-8"></path>
            <path d="M128.906736,24.0637199 C128.906736,17.8422419 125.283139,14.0100985 120.021294,14.0100985 C114.808745,14.0100985 111.234444,17.7928167 111.234444,24.0637199 C111.234444,30.3847252 114.808745,34.1674434 120.119886,34.1674434 C125.332435,34.1674434 128.906736,30.3353001 128.906736,24.0637199 M105.674797,24.0637199 C105.674797,14.2592556 111.631514,9.28220859 118.680847,9.28220859 C123.148553,9.28220859 127.119923,11.4718113 128.757497,15.4034821 L128.757497,9.82994781 L134.31782,9.82994781 L134.31782,38.2487438 L128.757497,38.2487438 L128.757497,32.8729102 C127.169219,36.7057306 123.148553,38.9454356 118.730818,38.9454356 C111.68081,38.9454356 105.674797,33.9189634 105.674797,24.0637199" id="Fill-10"></path>
            <path d="M142.170732,9.82994781 L147.730379,9.82994781 L147.730379,15.2051044 C148.723053,11.5219136 151.94958,9.33231082 156.367315,9.33231082 C161.132824,9.33231082 163.466619,11.123804 165.004926,16.1008509 C166.345373,11.7710706 170.118208,9.28220859 175.430025,9.28220859 C182.57795,9.28220859 185.555971,13.5625638 185.555971,23.8145628 L185.555971,38.298169 L179.996999,38.298169 L179.996999,24.2634517 C179.996999,16.9965975 178.110243,14.1096259 173.394031,14.1096259 C168.529255,14.1096259 166.493936,17.0961249 166.493936,24.1632473 L166.493936,38.298169 L160.934964,38.298169 L160.934964,24.3128769 C160.934964,16.847645 159.246068,14.1597282 154.629798,14.1597282 C149.814994,14.1597282 147.730379,17.3947071 147.730379,24.7103094 L147.730379,38.298169 L142.170732,38.298169 L142.170732,9.82994781 Z" id="Fill-12"></path>
            <path d="M192.642698,38.5719447 L198.151699,38.5719447 L198.151699,10.1037236 L192.642698,10.1037236 L192.642698,38.5719447 Z M191.739837,2.986499 C191.739837,1.09480138 193.536104,0 195.422184,0 C197.208996,0 198.34213,1.09480138 198.34213,2.986499 C198.34213,4.82741734 197.208996,5.97232095 195.422184,5.97232095 C193.536104,5.97232095 191.739837,4.82741734 191.739837,2.986499 Z" id="Fill-14"></path>
            <path d="M206.447154,9.77984558 L212.006802,9.77984558 L212.006802,14.9552703 C213.297953,11.4217091 216.52448,9.28220859 221.289313,9.28220859 C229.133461,9.28220859 232.756382,13.8103667 232.756382,22.8192889 L232.756382,38.2480667 L227.196734,38.2480667 L227.196734,23.2668236 C227.196734,17.0460227 224.814317,14.1096259 219.551797,14.1096259 C214.191359,14.1096259 212.006802,17.6431871 212.006802,23.9147673 L212.006802,38.2480667 L206.447154,38.2480667 L206.447154,9.77984558 Z" id="Fill-16"></path>
            <path d="M262.311374,23.4171303 C262.311374,17.2951797 258.786369,13.5618867 253.475903,13.5618867 C248.213382,13.5618867 244.688378,17.2951797 244.688378,23.4171303 C244.688378,29.6379312 248.213382,33.321122 253.525199,33.321122 C258.786369,33.321122 262.311374,29.588506 262.311374,23.4171303 M239.824278,40.5872991 L245.086798,39.2934429 C246.476541,42.2298397 249.553829,44.1208603 253.425932,44.1208603 C259.034875,44.1208603 262.212106,41.3340931 262.212106,34.2168686 L262.212106,31.7286836 C260.623828,35.9589366 256.602487,37.6014772 252.184752,37.6014772 C245.086798,37.6014772 239.130081,32.8735872 239.130081,23.4171303 C239.130081,14.0100985 245.086798,9.28220859 252.135456,9.28220859 C256.602487,9.28220859 260.623828,10.9247492 262.212106,15.2044273 L262.212106,9.77984558 L267.771754,9.77984558 L267.771754,33.321122 C267.771754,43.9719077 262.758414,48.5508451 253.376636,48.5508451 C246.724372,48.5508451 241.759653,45.6638735 239.824278,40.5872991" id="Fill-17"></path>
            <path d="M0,81.0671158 L5.06331069,79.6737322 C6.45372904,82.2614445 9.38245383,83.6548281 13.352473,83.6548281 C17.7708835,83.6548281 20.1546507,82.2614445 20.1546507,79.6737322 C20.1546507,73.153672 1.24117966,79.0758908 1.24117966,67.1319259 C1.24117966,62.2537293 6.40375771,58.9693252 12.9560788,58.9693252 C18.1186569,58.9693252 23.3312063,61.5570375 25.0187514,65.4893853 L20.0547081,66.8326667 C18.864175,64.7425913 16.0833383,63.5482625 13.0553462,63.5482625 C9.08465174,63.5482625 6.70155979,64.8915439 6.70155979,67.2314533 C6.70155979,73.7007342 25.762919,67.7284132 25.762919,79.5241026 C25.762919,84.9987865 20.9481143,88.4334973 13.352473,88.4334973 C6.95006584,88.4334973 1.73751646,85.5465257 0,81.0671158" id="Fill-18"></path>
            <path d="M53.4388771,70.8144396 C53.0418077,66.2856045 49.9638442,63.3986329 44.9505049,63.3986329 C40.184321,63.3986329 36.8585267,65.8874949 36.2129512,70.8144396 L53.4388771,70.8144396 Z M30.504065,73.7508364 C30.504065,64.9917483 36.3621899,58.9693252 44.8505622,58.9693252 C53.8852426,58.9693252 59.3456228,65.6390149 58.6507512,75.1949993 L36.0643878,75.1949993 C36.2629226,80.7191084 39.6879841,83.85456 45.1983356,83.85456 C49.1697053,83.85456 51.7499814,82.5106016 53.1403998,79.7739367 L58.2536818,80.5694788 C55.9705325,85.8451079 51.5021507,88.5323477 45.098393,88.5323477 C36.2629226,88.5323477 30.504065,82.6595541 30.504065,73.7508364 Z" id="Fill-19"></path>
            <path d="M65.3658537,59.8582107 L70.9255012,59.8582107 L70.9255012,64.6355259 C71.979626,61.7052226 74.8509513,59.0166287 80.357251,59.5941585 L79.8528108,64.9550968 C73.8089816,64.0078939 70.9255012,67.4426047 70.9255012,74.2409354 L70.9255012,88.3264319 L65.3658537,88.3264319 L65.3658537,59.8582107 Z" id="Fill-20"></path>
            <polygon id="Fill-21" points="82.796748 59.5153374 88.8534076 59.5153374 97.9866801 81.9110332 107.120628 59.5153374 113.276555 59.5153374 100.766166 88.0329838 95.2071939 88.0329838"></polygon>
            <path d="M118.155549,88.2590613 L123.665225,88.2590613 L123.665225,59.7908401 L118.155549,59.7908401 L118.155549,88.2590613 Z M117.658537,52.6736156 C117.658537,50.782595 119.04828,49.6871166 120.934359,49.6871166 C122.721172,49.6871166 124.260829,50.782595 124.260829,52.6736156 C124.260829,54.515211 122.721172,55.6594375 120.934359,55.6594375 C119.04828,55.6594375 117.658537,54.515211 117.658537,52.6736156 Z" id="Fill-22"></path>
            <path d="M130.731707,73.7508364 C130.731707,65.1407009 136.589157,58.9693252 144.780402,58.9693252 C151.928328,58.9693252 156.197499,62.2544063 157.984312,68.7243643 L153.218803,69.669536 C151.828385,65.6390149 149.198813,63.6972151 145.028233,63.6972151 C139.86498,63.6972151 136.291355,67.7785155 136.291355,73.7508364 C136.291355,79.6737322 139.86498,83.7550326 145.028233,83.7550326 C148.89966,83.7550326 151.878356,81.5654298 153.118861,77.8321368 L157.885045,78.7779856 C156.346738,84.8999362 151.580554,88.5323477 144.780402,88.5323477 C136.589157,88.5323477 130.731707,82.361649 130.731707,73.7508364" id="Fill-23"></path>
            <path d="M185.260015,70.8144396 C184.862946,66.2856045 181.784982,63.3986329 176.771643,63.3986329 C172.005459,63.3986329 168.679665,65.8874949 168.034089,70.8144396 L185.260015,70.8144396 Z M162.325203,73.7508364 C162.325203,64.9917483 168.183328,58.9693252 176.6717,58.9693252 C185.705706,58.9693252 191.166761,65.6390149 190.471889,75.1949993 L167.885526,75.1949993 C168.084061,80.7191084 171.509122,83.85456 177.019474,83.85456 C180.990844,83.85456 183.57112,82.5106016 184.961538,79.7739367 L190.07482,80.5694788 C187.791671,85.8451079 183.323289,88.5323477 176.919531,88.5323477 C168.084061,88.5323477 162.325203,82.6595541 162.325203,73.7508364 Z" id="Fill-24"></path>
            <path d="M195.00813,81.0671158 L200.071441,79.6737322 C201.461859,82.2614445 204.390584,83.6548281 208.361278,83.6548281 C212.779689,83.6548281 215.162781,82.2614445 215.162781,79.6737322 C215.162781,73.153672 196.24931,79.0758908 196.24931,67.1319259 C196.24931,62.2537293 201.411888,58.9693252 207.964884,58.9693252 C213.127462,58.9693252 218.340012,61.5570375 220.027557,65.4893853 L215.062838,66.8326667 C213.872305,64.7425913 211.092144,63.5482625 208.064152,63.5482625 C204.092782,63.5482625 201.710365,64.8915439 201.710365,67.2314533 C201.710365,73.7007342 220.771724,67.7284132 220.771724,79.5241026 C220.771724,84.9987865 215.956244,88.4334973 208.361278,88.4334973 C201.958196,88.4334973 196.745647,85.5465257 195.00813,81.0671158" id="Fill-25"></path>
        </g>
    </g>
</svg>