<svg id="Layer_1" data-name="Layer 1" xmlns="http://www.w3.org/2000/svg" viewBox="0 0 167.2 245.15"><defs><style>.cls-1{fill:#a91f62;}.cls-1,.cls-2,.cls-3,.cls-4,.cls-5{stroke:#ed1968;stroke-miterlimit:10;}.cls-1,.cls-2,.cls-3,.cls-4{stroke-width:0.5px;}.cls-2{fill:#d31678;}.cls-3{fill:#530b2c;}.cls-4,.cls-5{fill:#36c6f4;}.cls-5{stroke-width:0.25px;}</style></defs><polygon class="cls-1" points="0.25 146.35 0.25 98.4 22.1 97.1 21.65 149.41 0.25 146.35"/><polygon class="cls-2" points="21.65 97.1 21.93 149.53 38.39 145.76 38.45 98.69 21.65 97.1"/><polygon class="cls-1" points="128.76 146.35 128.76 98.4 150.61 97.1 150.44 149.53 128.76 146.35"/><polygon class="cls-2" points="150.16 97.1 150.44 149.53 166.9 145.76 166.95 98.69 150.16 97.1"/><polygon class="cls-3" points="130.32 94.46 83.18 85.38 34.87 95.33 82.92 100.31 130.32 94.46"/><polygon class="cls-1" points="33.65 95.13 33.65 24.85 82.51 0.41 83.11 85.18 33.65 95.13"/><polygon class="cls-2" points="82.62 0.41 83.22 85.18 131.48 94.25 131.64 25.29 82.62 0.41"/><rect class="cls-2" x="46.76" y="65.16" width="4.8" height="8.78"/><rect class="cls-4" x="46.89" y="65.9" width="4.53" height="7.32"/><circle class="cls-2" cx="63.76" cy="36.5" r="9.07"/><circle class="cls-1" cx="102.48" cy="36.5" r="9.07"/><rect class="cls-1" x="52.04" y="65.9" width="4.8" height="8.78"/><rect class="cls-4" x="52.18" y="66.63" width="4.51" height="7.32"/><rect class="cls-2" x="57.19" y="66.55" width="4.8" height="8.78"/><rect class="cls-4" x="57.32" y="67.29" width="4.53" height="7.32"/><rect class="cls-1" x="62.46" y="67.29" width="4.8" height="8.78"/><rect class="cls-4" x="62.61" y="68.02" width="4.51" height="7.32"/><rect class="cls-2" x="67.73" y="68.02" width="4.8" height="8.78"/><rect class="cls-4" x="67.86" y="68.75" width="4.53" height="7.32"/><rect class="cls-1" x="72.91" y="69.55" width="4.8" height="8.78"/><rect class="cls-4" x="73.06" y="70.29" width="4.51" height="7.32"/><rect class="cls-2" x="78.19" y="70.43" width="4.8" height="8.78"/><rect class="cls-4" x="78.32" y="71.16" width="4.53" height="7.32"/><rect class="cls-1" x="83.23" y="70.43" width="4.8" height="8.78"/><rect class="cls-4" x="83.38" y="71.16" width="4.51" height="7.32"/><rect class="cls-2" x="88.26" y="69.55" width="4.8" height="8.78"/><rect class="cls-4" x="88.39" y="70.29" width="4.53" height="7.32"/><rect class="cls-1" x="93.57" y="68.02" width="4.8" height="8.78"/><rect class="cls-4" x="93.72" y="68.75" width="4.51" height="7.32"/><rect class="cls-2" x="98.67" y="67.29" width="4.8" height="8.78"/><rect class="cls-4" x="98.8" y="68.02" width="4.53" height="7.32"/><rect class="cls-1" x="103.87" y="66.59" width="4.8" height="8.78"/><rect class="cls-4" x="104.02" y="67.32" width="4.51" height="7.32"/><rect class="cls-2" x="109.02" y="65.86" width="4.8" height="8.78"/><rect class="cls-4" x="109.15" y="66.59" width="4.53" height="7.32"/><rect class="cls-1" x="114.26" y="65.16" width="4.8" height="8.78"/><rect class="cls-4" x="114.41" y="65.9" width="4.51" height="7.32"/><circle class="cls-4" cx="63.76" cy="36.5" r="6.91"/><circle class="cls-4" cx="102.48" cy="36.5" r="6.91"/><polygon class="cls-1" points="34.4 167.74 34.4 97.46 82.98 86.97 84.14 196.79 34.4 167.74"/><polygon class="cls-2" points="82.98 86.97 84.14 196.79 131.87 166.86 132.03 97.1 82.98 86.97"/><polygon class="cls-4" points="76.47 88.37 83.06 94.96 89.52 88.49 82.98 86.97 76.47 88.37"/><polygon class="cls-4" points="79.37 91.27 79.66 157.29 83.46 163.65 86.84 156.83 86.51 91.61 83.05 95.36 79.37 91.27"/><polygon class="cls-1" points="37.55 241.67 37.55 169.58 58.9 181.73 58.9 244.72 37.55 241.67"/><polygon class="cls-2" points="58.9 181.73 58.9 244.72 75.46 241.12 75.75 191.89 58.9 181.73"/><polygon class="cls-1" points="91.27 241.67 91.75 192.06 113.03 178.68 112.95 244.84 91.27 241.67"/><polygon class="cls-2" points="113.03 178.68 112.95 244.84 129.41 241.07 129.5 168.49 113.03 178.68"/><circle class="cls-4" cx="46.45" cy="190.83" r="2.71"/><polygon class="cls-5" points="49.33 191.3 74.89 191.3 72.73 189.94 49.33 189.94 49.33 191.3"/><circle class="cls-4" cx="122.8" cy="191.3" r="2.71"/><polygon class="cls-5" points="119.91 190.32 94.27 190.32 92.29 191.51 119.91 191.69 119.91 190.32"/><circle class="cls-4" cx="159.84" cy="142.64" r="2.71"/><polygon class="cls-5" points="160.66 139.35 160.35 98.07 158.91 97.93 159.29 139.36 160.66 139.35"/><circle class="cls-4" cx="11.36" cy="142.64" r="2.71"/><polygon class="cls-5" points="12.18 139.35 11.87 97.82 10.43 97.93 10.81 139.36 12.18 139.35"/><polygon class="cls-5" points="47.13 242.89 47.13 193.54 45.77 193.54 45.77 242.67 47.13 242.89"/><polygon class="cls-5" points="123.48 242.43 123.48 194.01 122.11 194.01 122.03 242.76 123.48 242.43"/><circle class="cls-4" cx="49.33" cy="150.32" r="2.71"/><circle class="cls-4" cx="49.33" cy="107.26" r="2.71"/><circle class="cls-4" cx="116.87" cy="150.32" r="2.71"/><circle class="cls-4" cx="117.38" cy="107.26" r="2.71"/><polygon class="cls-5" points="49.84 176.57 49.84 153.03 48.47 153.03 48.47 175.87 49.84 176.57"/><polygon class="cls-5" points="117.55 175.84 117.55 153.03 116.19 153.03 116.19 176.69 117.55 175.84"/><polygon class="cls-5" points="48.57 94.4 48.74 104.56 50.1 104.54 49.93 94.1 48.57 94.4"/><polygon class="cls-5" points="116.61 93.92 116.78 104.41 118.15 104.39 118.06 94.25 116.61 93.92"/><rect class="cls-5" x="34.4" y="149.64" width="12.22" height="1.37"/><rect class="cls-5" x="34.4" y="106.58" width="12.22" height="1.37"/><rect class="cls-5" x="120.09" y="106.58" width="12.22" height="1.37"/><rect class="cls-5" x="119.81" y="149.64" width="12.22" height="1.37"/></svg>