<svg id="Layer_1" data-name="Layer 1" xmlns="http://www.w3.org/2000/svg" viewBox="0 0 167.2 245.15"><defs><style>.cls-1{fill:#a91f62}.cls-1,.cls-2,.cls-4,.cls-5{stroke:#ed1968;stroke-miterlimit:10}.cls-1,.cls-2,.cls-4{stroke-width:.5px}.cls-2{fill:#d31678}.cls-4,.cls-5{fill:#36c6f4}.cls-5{stroke-width:.25px}</style></defs><path class="cls-1" d="M.25 146.35V98.4l21.85-1.3-.45 52.31-21.4-3.06z"/><path class="cls-2" d="M21.65 97.1l.28 52.43 16.46-3.77.06-47.07-16.8-1.59z"/><path class="cls-1" d="M128.76 146.35V98.4l21.85-1.3-.17 52.43-21.68-3.18z"/><path class="cls-2" d="M150.16 97.1l.28 52.43 16.46-3.77.05-47.07-16.79-1.59z"/><path fill="#530b2c" stroke-width=".5" stroke="#ed1968" stroke-miterlimit="10" d="M130.32 94.46l-47.14-9.08-48.31 9.95 48.05 4.98 47.4-5.85z"/><path class="cls-1" d="M33.65 95.13V24.85L82.51.41l.6 84.77-49.46 9.95z"/><path class="cls-2" d="M82.62.41l.6 84.77 48.26 9.07.16-68.96L82.62.41zM46.76 65.16h4.8v8.78h-4.8z"/><path class="cls-4" d="M46.89 65.9h4.53v7.32h-4.53z"/><circle class="cls-2" cx="63.76" cy="36.5" r="9.07"/><circle class="cls-1" cx="102.48" cy="36.5" r="9.07"/><path class="cls-1" d="M52.04 65.9h4.8v8.78h-4.8z"/><path class="cls-4" d="M52.18 66.63h4.51v7.32h-4.51z"/><path class="cls-2" d="M57.19 66.55h4.8v8.78h-4.8z"/><path class="cls-4" d="M57.32 67.29h4.53v7.32h-4.53z"/><path class="cls-1" d="M62.46 67.29h4.8v8.78h-4.8z"/><path class="cls-4" d="M62.61 68.02h4.51v7.32h-4.51z"/><path class="cls-2" d="M67.73 68.02h4.8v8.78h-4.8z"/><path class="cls-4" d="M67.86 68.75h4.53v7.32h-4.53z"/><path class="cls-1" d="M72.91 69.55h4.8v8.78h-4.8z"/><path class="cls-4" d="M73.06 70.29h4.51v7.32h-4.51z"/><path class="cls-2" d="M78.19 70.43h4.8v8.78h-4.8z"/><path class="cls-4" d="M78.32 71.16h4.53v7.32h-4.53z"/><path class="cls-1" d="M83.23 70.43h4.8v8.78h-4.8z"/><path class="cls-4" d="M83.38 71.16h4.51v7.32h-4.51z"/><path class="cls-2" d="M88.26 69.55h4.8v8.78h-4.8z"/><path class="cls-4" d="M88.39 70.29h4.53v7.32h-4.53z"/><path class="cls-1" d="M93.57 68.02h4.8v8.78h-4.8z"/><path class="cls-4" d="M93.72 68.75h4.51v7.32h-4.51z"/><path class="cls-2" d="M98.67 67.29h4.8v8.78h-4.8z"/><path class="cls-4" d="M98.8 68.02h4.53v7.32H98.8z"/><path class="cls-1" d="M103.87 66.59h4.8v8.78h-4.8z"/><path class="cls-4" d="M104.02 67.32h4.51v7.32h-4.51z"/><path class="cls-2" d="M109.02 65.86h4.8v8.78h-4.8z"/><path class="cls-4" d="M109.15 66.59h4.53v7.32h-4.53z"/><path class="cls-1" d="M114.26 65.16h4.8v8.78h-4.8z"/><path class="cls-4" d="M114.41 65.9h4.51v7.32h-4.51z"/><circle class="cls-4" cx="63.76" cy="36.5" r="6.91"/><circle class="cls-4" cx="102.48" cy="36.5" r="6.91"/><path class="cls-1" d="M34.4 167.74V97.46l48.58-10.49 1.16 109.82-49.74-29.05z"/><path class="cls-2" d="M82.98 86.97l1.16 109.82 47.73-29.93.16-69.76-49.05-10.13z"/><path class="cls-4" d="M76.47 88.37l6.59 6.59 6.46-6.47-6.54-1.52-6.51 1.4z"/><path class="cls-4" d="M79.37 91.27l.29 66.02 3.8 6.36 3.38-6.82-.33-65.22-3.46 3.75-3.68-4.09z"/><path class="cls-1" d="M37.55 241.67v-72.09l21.35 12.15v62.99l-21.35-3.05z"/><path class="cls-2" d="M58.9 181.73v62.99l16.56-3.6.29-49.23-16.85-10.16z"/><path class="cls-1" d="M91.27 241.67l.48-49.61 21.28-13.38-.08 66.16-21.68-3.17z"/><path class="cls-2" d="M113.03 178.68l-.08 66.16 16.46-3.77.09-72.58-16.47 10.19z"/><circle class="cls-4" cx="46.45" cy="190.83" r="2.71"/><path class="cls-5" d="M49.33 191.3h25.56l-2.16-1.36h-23.4v1.36z"/><circle class="cls-4" cx="122.8" cy="191.3" r="2.71"/><path class="cls-5" d="M119.91 190.32H94.27l-1.98 1.19 27.62.18v-1.37z"/><circle class="cls-4" cx="159.84" cy="142.64" r="2.71"/><path class="cls-5" d="M160.66 139.35l-.31-41.28-1.44-.14.38 41.43 1.37-.01z"/><circle class="cls-4" cx="11.36" cy="142.64" r="2.71"/><path class="cls-5" d="M12.18 139.35l-.31-41.53-1.44.11.38 41.43 1.37-.01zm34.95 103.54v-49.35h-1.36v49.13l1.36.22zm76.35-.46v-48.42h-1.37l-.08 48.75 1.45-.33z"/><circle class="cls-4" cx="49.33" cy="150.32" r="2.71"/><circle class="cls-4" cx="49.33" cy="107.26" r="2.71"/><circle class="cls-4" cx="116.87" cy="150.32" r="2.71"/><circle class="cls-4" cx="117.38" cy="107.26" r="2.71"/><path class="cls-5" d="M49.84 176.57v-23.54h-1.37v22.84l1.37.7zm67.71-.73v-22.81h-1.36v23.66l1.36-.85zM48.57 94.4l.17 10.16 1.36-.02-.17-10.44-1.36.3zm68.04-.48l.17 10.49 1.37-.02-.09-10.14-1.45-.33zM34.4 149.64h12.22v1.37H34.4zm0-43.06h12.22v1.37H34.4zm85.69 0h12.22v1.37h-12.22zm-.28 43.06h12.22v1.37h-12.22z"/></svg>